<svg width="20" height="20" viewBox="0 0 20 20" xmlns="http://www.w3.org/2000/svg">
<rect width="20" height="20" rx="10" fill="currentColor"/>
<path d="M8.89988 14.8423C9.23095 14.8423 9.48907 14.7132 9.66863 14.4439L14.9208 6.31866C15.0555 6.11666 15.106 5.93709 15.106 5.76314C15.106 5.31985 14.7806 5 14.326 5C14.0118 5 13.821 5.11223 13.6302 5.41524L8.87743 12.9457L6.44211 9.85942C6.25694 9.62935 6.06615 9.52835 5.7912 9.52835C5.33107 9.52835 5 9.85381 5 10.3027C5 10.4991 5.06734 10.6843 5.23006 10.8807L8.13674 14.4607C8.34997 14.7244 8.58564 14.8423 8.89988 14.8423Z" fill="white"/>
</svg>
