<svg width="305" height="54" viewBox="0 0 305 54" fill="none" xmlns="http://www.w3.org/2000/svg">
<path d="M2.05975 49.0072C0.686582 49.0072 0 48.2551 0 46.7508V8.12165C0 6.6174 0.686582 5.86527 2.05975 5.86527H13.0647C20.1267 5.86527 25.021 7.03859 27.7477 9.38522C30.4941 11.7319 31.8672 15.0613 31.8672 19.3734C31.8672 23.6856 30.4941 27.015 27.7477 29.3617C25.021 31.7083 20.1267 32.8816 13.0647 32.8816H8.59209V46.7508C8.59209 48.2551 7.9055 49.0072 6.53234 49.0072H2.05975ZM8.59209 25.5409H13.0353C16.9586 25.5409 19.6264 25.0695 21.0388 24.1269C22.4512 23.1642 23.1574 21.5797 23.1574 19.3734C23.1574 17.1672 22.4512 15.5928 21.0388 14.6501C19.6264 13.6874 16.9586 13.206 13.0353 13.206H8.59209V25.5409Z" fill="#363D29"/>
<path d="M40.1356 49.0072C38.9586 49.0072 38.3701 48.4055 38.3701 47.2021V11.6717C38.3701 10.7691 38.5761 9.94681 38.9881 9.20471L41.2538 5.14323C41.6854 4.38108 42.1954 4 42.7839 4H44.8436C46.0206 4 46.6091 4.6017 46.6091 5.8051V47.2021C46.6091 48.4055 46.0206 49.0072 44.8436 49.0072H40.1356Z" fill="#363D29"/>
<path d="M52.9649 40.5834C52.9649 36.572 54.8383 33.6638 58.5851 31.8587C62.3319 30.0536 66.6083 29.0909 71.4144 28.9706V27.7672C71.4144 25.922 70.9632 24.6183 70.0608 23.8561C69.1585 23.094 67.903 22.7129 66.2944 22.7129C65.1567 22.7129 64.1464 22.8834 63.2637 23.2243C62.4005 23.5452 61.6453 23.9263 60.9979 24.3676C60.3702 24.7887 59.8013 25.22 59.2913 25.6612C58.3889 26.4635 57.6435 26.5036 57.055 25.7816L54.6127 22.7129C54.0046 21.9507 54.1517 21.1685 55.0541 20.3663C55.7407 19.7445 56.5351 19.203 57.4375 18.7417C58.3595 18.2804 59.5757 17.8491 61.0862 17.448C62.5967 17.0268 64.5584 16.8162 66.9712 16.8162C71.0515 16.8162 74.1803 17.7789 76.3578 19.7044C78.5548 21.6298 79.6534 24.4678 79.6534 28.2184V47.2021C79.6534 48.4055 79.0649 49.0072 77.8879 49.0072H73.0622C72.0029 49.0072 71.4732 48.4055 71.4732 47.2021V46.2995H71.4144C70.257 47.4428 68.8642 48.2852 67.236 48.8267C65.6275 49.3482 64.1464 49.6089 62.7929 49.6089C59.5757 49.6089 57.1335 48.8066 55.466 47.2021C53.7986 45.5775 52.9649 43.3713 52.9649 40.5834ZM61.6747 40.4029C61.6747 41.1049 61.812 41.7166 62.0867 42.2381C62.3613 42.7395 62.7929 43.1105 63.3814 43.3512C63.9699 43.5919 64.627 43.7122 65.3528 43.7122C66.3533 43.7122 67.3243 43.5718 68.2659 43.291C69.2075 43.0102 70.257 42.3484 71.4144 41.3054V34.777C68.1188 35.1581 65.9119 35.6494 64.7938 36.2511C63.6756 36.8528 62.8713 37.4746 62.3809 38.1164C61.9101 38.7582 61.6747 39.5204 61.6747 40.4029Z" fill="#363D29"/>
<path d="M89.4519 49.0072C88.2749 49.0072 87.6864 48.4055 87.6864 47.2021V19.223C87.6864 18.0196 88.2749 17.4179 89.4519 17.4179H94.101C95.278 17.4179 95.8665 18.0196 95.8665 19.223V20.968H95.9842C96.8866 19.3835 98.0341 18.3004 99.4269 17.7188C100.82 17.1171 102.497 16.8162 104.459 16.8162C107.519 16.8162 110.049 17.799 112.05 19.7646C114.051 21.7301 115.052 25.3203 115.052 30.535V47.2021C115.052 48.4055 114.463 49.0072 113.286 49.0072H108.578C107.401 49.0072 106.813 48.4055 106.813 47.2021V32.7011C106.813 28.3288 106.518 25.571 105.93 24.4277C105.341 23.2845 104.076 22.7129 102.134 22.7129C100.074 22.7129 98.5246 23.5352 97.4849 25.1799C96.4452 26.8044 95.9254 30.194 95.9254 35.3486V47.2021C95.9254 48.4055 95.3369 49.0072 94.1599 49.0072H89.4519Z" fill="#363D29"/>
<path d="M121.966 23.4349C120.809 23.4349 120.23 22.9335 120.23 21.9307V18.9222C120.23 17.9193 120.809 17.4179 121.966 17.4179H123.967V16.3649C123.967 15.4624 124.173 14.6401 124.585 13.898L126.851 9.83649C127.283 9.07434 127.793 8.69326 128.381 8.69326H130.441C131.618 8.69326 132.206 9.29496 132.206 10.4984V17.4179H136.973C138.131 17.4179 138.709 17.9193 138.709 18.9222V21.9307C138.709 22.9335 138.131 23.4349 136.973 23.4349H132.206V38.3571C132.206 40.4029 132.344 41.877 132.618 42.7796C132.913 43.6621 133.658 44.1033 134.855 44.1033C135.463 44.1033 136.149 44.0031 136.914 43.8025C137.679 43.5819 138.278 43.3713 138.709 43.1707C139.396 42.8498 139.847 43.0804 140.063 43.8627L140.946 47.2923C141.122 47.9743 140.867 48.4757 140.18 48.7966C139.533 49.0974 138.641 49.3682 137.503 49.6089C136.385 49.8696 135.257 50 134.119 50C131.314 50 128.921 49.4083 126.939 48.225C124.958 47.0416 123.967 44.6048 123.967 40.9143V23.4349H121.966Z" fill="#363D29"/>
<path d="M166.493 49.0072C165.12 49.0072 164.433 48.2551 164.433 46.7508V8.12165C164.433 6.6174 165.12 5.86527 166.493 5.86527H177.498C184.56 5.86527 189.454 7.03859 192.181 9.38522C194.927 11.7319 196.3 15.0613 196.3 19.3734C196.3 23.6856 194.927 27.015 192.181 29.3617C189.454 31.7083 184.56 32.8816 177.498 32.8816H173.025V46.7508C173.025 48.2551 172.339 49.0072 170.966 49.0072H166.493ZM173.025 25.5409H177.468C181.392 25.5409 184.06 25.0695 185.472 24.1269C186.884 23.1642 187.591 21.5797 187.591 19.3734C187.591 17.1672 186.884 15.5928 185.472 14.6501C184.06 13.6874 181.392 13.206 177.468 13.206H173.025V25.5409Z" fill="#363D29"/>
<path d="M200.04 40.5834C200.04 36.572 201.913 33.6638 205.66 31.8587C209.407 30.0536 213.683 29.0909 218.489 28.9706V27.7672C218.489 25.922 218.038 24.6183 217.135 23.8561C216.233 23.094 214.978 22.7129 213.369 22.7129C212.231 22.7129 211.221 22.8834 210.338 23.2243C209.475 23.5452 208.72 23.9263 208.073 24.3676C207.445 24.7887 206.876 25.22 206.366 25.6612C205.464 26.4635 204.718 26.5036 204.13 25.7816L201.687 22.7129C201.079 21.9507 201.226 21.1685 202.129 20.3663C202.815 19.7445 203.61 19.203 204.512 18.7417C205.434 18.2804 206.65 17.8491 208.161 17.448C209.671 17.0268 211.633 16.8162 214.046 16.8162C218.126 16.8162 221.255 17.7789 223.432 19.7044C225.629 21.6298 226.728 24.4678 226.728 28.2184V47.2021C226.728 48.4055 226.14 49.0072 224.963 49.0072H220.137C219.078 49.0072 218.548 48.4055 218.548 47.2021V46.2995H218.489C217.332 47.4428 215.939 48.2852 214.311 48.8267C212.702 49.3482 211.221 49.6089 209.868 49.6089C206.65 49.6089 204.208 48.8066 202.541 47.2021C200.873 45.5775 200.04 43.3713 200.04 40.5834ZM208.749 40.4029C208.749 41.1049 208.887 41.7166 209.161 42.2381C209.436 42.7395 209.868 43.1105 210.456 43.3512C211.045 43.5919 211.702 43.7122 212.427 43.7122C213.428 43.7122 214.399 43.5718 215.341 43.291C216.282 43.0102 217.332 42.3484 218.489 41.3054V34.777C215.193 35.1581 212.987 35.6494 211.868 36.2511C210.75 36.8528 209.946 37.4746 209.456 38.1164C208.985 38.7582 208.749 39.5204 208.749 40.4029Z" fill="#363D29"/>
<path d="M236.527 49.0072C235.35 49.0072 234.761 48.4055 234.761 47.2021V11.6717C234.761 10.7691 234.967 9.94681 235.379 9.20471L237.645 5.14323C238.076 4.38108 238.586 4 239.175 4H241.235C242.411 4 243 4.6017 243 5.8051V47.2021C243 48.4055 242.411 49.0072 241.235 49.0072H236.527Z" fill="#363D29"/>
<path d="M267.5 40.5C258.125 23.625 270.625 6.74998 297.187 8.43748C298.75 37.125 283.125 50.625 267.5 40.5Z" fill="#DBE2D3" stroke="#124212" stroke-opacity="0.5" stroke-width="3.5" stroke-linecap="round" stroke-linejoin="round"/>
<path d="M286.25 20.25L262.812 45.5625" stroke="#124212" stroke-opacity="0.5" stroke-width="3.5" stroke-linecap="round" stroke-linejoin="round"/>
</svg>
